<svg id="visual" viewBox="0 0 900 600" width="900" height="600" xmlns="http://www.w3.org/2000/svg" xmlns:xlink="http://www.w3.org/1999/xlink" version="1.1"><rect x="0" y="0" width="900" height="600" fill="#fff"></rect><path d="M0 346L25 348.8C50 351.7 100 357.3 150 375.5C200 393.7 250 424.3 300 456.3C350 488.3 400 521.7 450 530.7C500 539.7 550 524.3 600 494.7C650 465 700 421 750 424.5C800 428 850 479 875 504.5L900 530L900 601L875 601C850 601 800 601 750 601C700 601 650 601 600 601C550 601 500 601 450 601C400 601 350 601 300 601C250 601 200 601 150 601C100 601 50 601 25 601L0 601Z" fill="#00C6CF" stroke-linecap="round" stroke-linejoin="miter"></path></svg>